{"title":"Batman vs Superman (2016) 720p mHD Blu-ray AAC 5.1.EUE-DDR","uid":15279572,"size":4148683646,"categoryP":"video","categoryS":"hd___movies","magnet":"?xt=urn:btih:be42130aa27bd600d07baa09e73f185375234680&amp;dn=Batman+vs+Superman+%282016%29+720p+mHD+Blu-ray+AAC+5.1.EUE-DDR&amp;tr=udp%3A%2F%2Ftracker.leechers-paradise.org%3A6969&amp;tr=udp%3A%2F%2Fzer0day.ch%3A1337&amp;tr=udp%3A%2F%2Fopen.demonii.com%3A1337&amp;tr=udp%3A%2F%2Ftracker.coppersurfer.tk%3A6969&amp;tr=udp%3A%2F%2Fexodus.desync.com%3A6969","seeders":12,"leechers":7,"uploader":"SaM","files":3,"time":1468335499,"description":"720p mHD Blu-ray Rip x264\r\n\r\nAAC 5.1 English Audio\r\n\r\nEnglish, French, Spanish, Portuguese &amp; Thai Subtitles\r\n \nhttp://extraimago.com/image/axzt \nhttp://extraimago.com/image/axzo \nhttp://extraimago.com/image/axzk \nhttp://extraimago.com/image/axzH \nhttp://extraimago.com/image/axzF \nhttp://extraimago.com/image/axzD \nhttp://extraimago.com/image/axz5 \nhttp://extraimago.com/image/axzg\r\n\r\nSpecs:\r\nSource: BD50 @ DDR\r\n\r\nFormat : Matroska\r\nFile size : 3.83 GiB\r\nDuration : 3h 2mn\r\nOverall bit rate : 3 005 Kbps\r\nEncoded date : UTC 2016-07-12 01:13:41\r\n\r\n\r\nVideo\r\nFormat : AVC\r\nFormat profile :   \r\nDuration : 3h 2mn\r\nBit rate : 2 800 Kbps\r\nWidth : 1 280 pixels\r\nHeight : 532 pixels\r\nDisplay aspect ratio : 2.40:1\r\nFrame rate mode : Constant\r\nFrame rate : 23.976 (24000/1001) fps\r\nColor space : YUV\r\nChroma subsampling : 4:2:0\r\nBit depth : 8 bits\r\nScan type : Progressive\r\nBits/(Pixel*Frame) : 0.171\r\nStream size : 3.57 GiB (93%)\r\n\r\nFormat : AAC\r\nFormat/Info : Advanced Audio Codec\r\nFormat profile : LC\r\nCodec ID : A_AAC\r\nDuration : 3h 2mn\r\nBit rate : 192 Kbps\r\nChannel(s) : 6 channels\r\nChannel positions : Front: L C R, Side: L R, LFE\r\nSampling rate : 48.0 KHz\r\nFrame rate : 46.875 fps (1024 spf)\r\nCompression mode : Lossy\r\nDelay relative to video : 9ms\r\nStream size : 250 MiB (6%)\r\nLanguage : English\r\nDefault : Yes\r\nForced : No\r\n\r\nChapters : YES - 16\r\nSAMPLE Included\r\n\r\nA DDR Exclusive Encode","torrent":{"xt":"urn:btih:be42130aa27bd600d07baa09e73f185375234680","amp;dn":"Batman+vs+Superman+%282016%29+720p+mHD+Blu-ray+AAC+5.1.EUE-DDR","amp;tr":["udp%3A%2F%2Ftracker.leechers-paradise.org%3A6969","udp%3A%2F%2Fzer0day.ch%3A1337","udp%3A%2F%2Fopen.demonii.com%3A1337","udp%3A%2F%2Ftracker.coppersurfer.tk%3A6969","udp%3A%2F%2Fexodus.desync.com%3A6969"],"infoHash":"be42130aa27bd600d07baa09e73f185375234680","infoHashBuffer":{"type":"Buffer","data":[190,66,19,10,162,123,214,0,208,123,170,9,231,63,24,83,117,35,70,128]},"announce":[],"urlList":[]}}